<?xml version="1.0" encoding="UTF-8" standalone="no"?>
<!-- Created with Inkscape (http://www.inkscape.org/) -->

<svg
   width="173.68604mm"
   height="85.545868mm"
   viewBox="0 0 173.68604 85.545868"
   version="1.1"
   id="svg1"
   xml:space="preserve"
   inkscape:version="1.3.2 (091e20e, 2023-11-25, custom)"
   sodipodi:docname="drawing.svg"
   xmlns:inkscape="http://www.inkscape.org/namespaces/inkscape"
   xmlns:sodipodi="http://sodipodi.sourceforge.net/DTD/sodipodi-0.dtd"
   xmlns="http://www.w3.org/2000/svg"
   xmlns:svg="http://www.w3.org/2000/svg"><sodipodi:namedview
     id="namedview1"
     pagecolor="#ffffff"
     bordercolor="#000000"
     borderopacity="0.25"
     inkscape:showpageshadow="2"
     inkscape:pageopacity="0.0"
     inkscape:pagecheckerboard="0"
     inkscape:deskcolor="#d1d1d1"
     inkscape:document-units="mm"
     inkscape:zoom="1.4485269"
     inkscape:cx="273.72636"
     inkscape:cy="136.34541"
     inkscape:window-width="1920"
     inkscape:window-height="1009"
     inkscape:window-x="-8"
     inkscape:window-y="-8"
     inkscape:window-maximized="1"
     inkscape:current-layer="layer1" /><defs
     id="defs1" /><g
     inkscape:label="Layer 1"
     inkscape:groupmode="layer"
     id="layer1"
     transform="translate(-9.2111163,-109.92453)"><path
       style="fill:#f9f9f9;stroke-width:1"
       d="m 148.49922,195.36023 c -1.73423,-0.26865 -2.77983,-0.89056 -3.61347,-2.14927 -0.72647,-1.09689 -0.72647,-1.09689 -0.81686,-6.80564 -0.0497,-3.13981 -0.007,-7.52445 0.0941,-9.74364 l 0.18438,-4.0349 h 5.92527 5.92526 v -2.49385 -2.49385 l 8.40054,-0.0858 c 8.39213,-0.0858 8.40173,-0.0865 9.59116,-0.7473 2.33251,-1.29584 3.02962,-4.1775 1.41763,-5.86006 -1.51761,-1.58404 -1.22184,-1.56705 -25.91323,-1.48796 -22.468,0.072 -22.468,0.072 -23.65863,0.73486 -1.50575,0.83832 -2.19,2.07557 -2.0279,3.66682 0.14586,1.43164 0.8244,2.3911 2.17727,3.07863 0.9651,0.49047 1.66052,0.53535 9.50795,0.61369 l 8.46667,0.0845 -0.0841,2.48611 -0.0841,2.48611 -2.67659,0.0752 -2.67659,0.0752 -0.9848,2.46881 c -1.31098,3.28657 -2.24095,4.72883 -3.82096,5.92592 -1.9555,1.48157 -3.48234,1.9202 -6.60623,1.89782 -3.44359,-0.0247 -5.23391,-0.67529 -7.16102,-2.60238 -2.1809,-2.18091 -3.09056,-5.43251 -2.52987,-9.04315 0.15561,-1.00211 1.05156,-3.90562 1.99101,-6.45223 1.75775,-4.76487 8.85944,-24.20764 13.28824,-36.38021 4.33707,-11.92043 4.9059,-13.19205 6.92963,-15.49112 2.1147,-2.40243 4.75372,-3.15801 11.02996,-3.15801 7.99103,0 10.19376,1.07242 12.71113,6.18859 0.65122,1.3235 2.97859,7.58558 5.17194,13.91575 2.19335,6.33015 6.17988,17.81968 8.85896,25.53229 2.67907,7.7126 5.00387,14.73729 5.1662,15.61042 0.66196,3.56042 -0.2106,6.66244 -2.53695,9.01898 -2.21658,2.24538 -3.81252,2.84792 -7.54314,2.84792 -3.57416,0 -5.32577,-0.62075 -7.28299,-2.58103 -1.31173,-1.31378 -1.91544,-2.47635 -3.41373,-6.5739 -0.45956,-1.25677 -0.45956,-1.25677 -3.04389,-1.25677 h -2.58433 l -0.17191,2.4219 c -0.0944,1.33204 -0.17191,5.48146 -0.17191,9.22094 0,7.1394 -0.10153,7.9228 -1.22261,9.43406 -0.99995,1.34795 -3.64675,2.05384 -6.21141,1.65655 z m 7.97407,-40.65897 c 0.0245,-0.44629 -5.7069,-21.23281 -5.85441,-21.23281 -0.088,0 -0.40363,0.80367 -0.70149,1.78594 -0.29786,0.98226 -1.74506,5.72751 -3.21599,10.54498 -1.47093,4.81748 -2.67442,8.83584 -2.67442,8.92969 0,0.2413 12.43308,0.21353 12.44631,-0.0278 z M 39.251876,190.97082 c -7.856709,-1.24401 -13.817557,-3.9989 -18.723399,-8.65328 -2.888059,-2.74003 -4.61778,-5.10002 -8.691399,-11.85835 -2.9594525,-4.90988 -2.8522713,-4.68807 -2.3571138,-4.87808 0.2881773,-0.11058 1.8512978,1.24962 5.1591448,4.48941 8.452116,8.2782 12.367954,10.87035 19.321094,12.78989 2.704656,0.74667 11.142759,0.66484 14.5521,-0.14112 5.577056,-1.3184 10.70264,-3.36471 21.298982,-8.50327 14.120248,-6.84744 20.289639,-8.85349 27.252117,-8.86138 4.044448,-0.005 5.150138,0.28391 9.392708,2.4507 3.23877,1.65412 4.05454,2.35145 4.68701,4.00655 1.48402,3.8835 -0.7583,8.34791 -4.36107,8.68278 -1.12033,0.10413 -1.57195,-0.0478 -4.29469,-1.44497 -3.388436,-1.73874 -5.108818,-2.18958 -8.355232,-2.18958 -4.307615,0 -7.828212,1.04979 -20.57011,6.1337 -13.186063,5.26114 -18.053634,6.81152 -24.289921,7.73664 -2.528883,0.37515 -8.295359,0.51347 -10.020221,0.24036 z m 5.164346,-18.37213 c -4.568863,-0.48093 -9.927882,-2.33299 -14.233192,-4.91894 -2.654408,-1.59435 -6.724871,-5.43129 -8.753439,-8.25124 -1.659525,-2.30694 -7.31316,-11.52976 -7.31316,-11.93002 0,-0.89407 1.14368,-0.001 5.642979,4.40587 6.86898,6.72806 10.384247,9.33101 15.287958,11.32027 3.521862,1.42869 6.082533,1.8646 10.819099,1.84174 7.977588,-0.0385 13.221203,-1.70905 28.575031,-9.10362 10.607157,-5.10852 14.234421,-6.57571 19.58748,-7.92294 5.995102,-1.50881 9.812562,-1.59304 13.572432,-0.29945 2.53735,0.87297 6.78249,3.22553 7.59156,4.20708 0.75853,0.92022 1.31731,2.59326 1.31731,3.94409 0,1.52376 -1.05029,3.96641 -2.12166,4.93433 -1.92749,1.74138 -3.7508,1.76358 -6.52319,0.0795 -0.85068,-0.51676 -2.49805,-1.26608 -3.66082,-1.66515 -1.78704,-0.61333 -2.56441,-0.72769 -5.024536,-0.73916 -1.600732,-0.007 -3.565265,0.14084 -4.365635,0.32954 -2.962294,0.69843 -8.277823,2.57323 -15.875022,5.59915 -15.097397,6.01322 -19.941401,7.47112 -27.213998,8.19061 -3.06799,0.30351 -4.253868,0.30001 -7.309197,-0.0216 z m 4.360664,-18.66763 c -8.561194,-1.48539 -16.100683,-6.1575 -21.068112,-13.05561 -0.890201,-1.23619 -2.892308,-4.36842 -4.449128,-6.9605 -2.313465,-3.85188 -2.772089,-4.78335 -2.510405,-5.09866 0.268045,-0.32298 1.16499,0.44556 5.508798,4.72012 2.85374,2.80824 5.940568,5.68116 6.859614,6.38424 6.366159,4.87022 11.609287,6.76963 18.75457,6.79415 8.039999,0.0276 13.365268,-1.6554 29.228607,-9.23739 12.315897,-5.88646 16.497852,-7.4581 22.66959,-8.51958 5.85545,-1.00708 8.84372,-0.54654 14.10755,2.1742 4.31724,2.23147 5.17965,3.48277 4.91824,7.13607 -0.14836,2.07369 -0.85693,3.39631 -2.48459,4.6378 -0.82915,0.63242 -1.23232,0.74901 -2.5901,0.74901 -1.4162,0 -1.82913,-0.13206 -3.46019,-1.10659 -2.59182,-1.54856 -4.82304,-2.24103 -7.74024,-2.40222 -4.69651,-0.2595 -8.202407,0.72624 -21.589576,6.07026 -13.134992,5.24336 -18.207272,6.86121 -24.28232,7.74505 -3.463557,0.5039 -8.87276,0.49007 -11.872308,-0.0303 z m 8.633481,-18.07861 c -5.530308,-0.699 -11.431974,-2.95072 -15.737605,-6.00453 -4.084828,-2.8972 -7.183828,-6.74478 -12.15057,-15.08557 -2.046248,-3.43632 -2.338183,-4.06874 -2.005605,-4.34475 0.32476,-0.26953 1.164593,0.44647 5.070073,4.32247 5.457275,5.41608 6.09217,5.98651 8.914177,8.00902 8.62776,6.18349 18.426181,7.28879 30.162533,3.40246 3.335006,-1.10435 8.152859,-3.20248 15.875017,-6.9134 10.938386,-5.25651 14.386163,-6.64784 19.733583,-7.96335 5.93676,-1.46048 9.59277,-1.57216 13.15171,-0.40173 1.62078,0.53303 5.26387,2.3168 6.77226,3.31591 3.00704,1.99178 3.31243,6.93853 0.59607,9.65489 -1.81423,1.81423 -4.23097,2.0598 -6.25221,0.63532 -3.0395,-2.14212 -7.33119,-3.15307 -11.37953,-2.68059 -3.93415,0.45915 -6.79829,1.40932 -19.843746,6.58316 -11.456866,4.54378 -16.177386,6.05528 -22.067019,7.0658 -2.93581,0.50371 -8.432702,0.70905 -10.839138,0.40489 z"
       id="path1" /></g></svg>
